<svg width="80" height="80" viewBox="0 0 129 133" fill="none" xmlns="http://www.w3.org/2000/svg">
<path d="M71.9829 66.3164C69.8611 55.5912 57.9992 39.659 49.8853 32.5312C37.5821 21.5939 20.5936 34.7713 34.1328 47.5307C35.7447 49.041 37.7293 50.7218 39.9636 52.4338C36.6814 51.5612 33.6511 50.9181 31.1495 50.6064C15.192 48.475 14.3809 70.1546 32.4914 73.1421C42.7808 74.8013 61.134 74.5925 70.4231 69.679C71.6605 69.0179 72.2723 67.7201 71.9838 66.3163L71.9829 66.3164ZM38.7636 45.3368L38.1676 36.3974L48.2156 37.49L48.8194 46.4153L38.7636 45.3368ZM33.7654 68.4491L26.6727 61.0069L33.8238 55.9307L40.907 63.349L33.7654 68.4491Z" fill="url(#paint0_linear_1079_55)"/>
<path d="M86.1226 116.363C86.134 107.294 82.533 90.5762 75.2441 81.2057C74.2658 79.9589 72.6794 79.1651 71.1376 79.172C59.3322 79.154 43.4065 87.0164 36.8 93.1167C26.6228 102.307 44.701 120.169 56.7074 110.179C58.1351 108.975 59.6829 107.477 61.2439 105.753C60.8277 108.583 60.6761 111.218 60.7719 113.449C61.2508 127.564 86.0414 132.289 86.1241 116.363L86.1226 116.363ZM43.327 104.459L42.7232 95.5332L52.779 96.6117L53.3749 105.551L43.327 104.459ZM73.4087 119.423L66.326 112.004L73.4681 106.905L80.5608 114.347L73.4087 119.423Z" fill="url(#paint1_linear_1079_55)"/>
<path d="M101.19 38.4421C99.7622 39.6459 98.2144 41.1433 96.6525 42.8668C97.0688 40.0372 97.2278 37.389 97.1324 35.1567C96.6522 21.0421 71.8554 16.3301 71.7887 32.2662C71.7773 41.3357 75.3783 58.0531 82.6596 67.4005C83.6379 68.6473 85.2074 69.4308 86.7661 69.4342C98.5563 69.4796 114.49 61.6032 121.112 55.5131C131.275 46.3145 113.196 28.4522 101.191 38.4438L101.19 38.4421ZM84.4302 41.7165L77.3549 34.284L84.4893 29.1985L91.5898 36.6264L84.4302 41.7165ZM105.125 51.9952L104.522 43.0699L114.577 44.1484L115.173 53.0878L105.125 51.9952Z" fill="url(#paint2_linear_1079_55)"/>
<defs>
<linearGradient id="paint0_linear_1079_55" x1="58.7918" y1="36.9989" x2="36.619" y2="76.8254" gradientUnits="userSpaceOnUse">
<stop stop-color="#BFD8EE"/>
<stop offset="0.538461" stop-color="#FFE1E9"/>
<stop offset="1" stop-color="#FFF0B5"/>
</linearGradient>
<linearGradient id="paint1_linear_1079_55" x1="75.3467" y1="80.7943" x2="54.462" y2="118.307" gradientUnits="userSpaceOnUse">
<stop stop-color="#BFD8EE"/>
<stop offset="0.538461" stop-color="#FFE1E9"/>
<stop offset="1" stop-color="#FFF0B5"/>
</linearGradient>
<linearGradient id="paint2_linear_1079_55" x1="103.446" y1="30.3204" x2="82.5693" y2="67.8184" gradientUnits="userSpaceOnUse">
<stop stop-color="#BFD8EE"/>
<stop offset="0.538461" stop-color="#FFE1E9"/>
<stop offset="1" stop-color="#FFF0B5"/>
</linearGradient>
</defs>
</svg>
