<svg width="27" height="27" viewBox="0 0 27 27" fill="none" xmlns="http://www.w3.org/2000/svg">
<path d="M17.625 13.5C17.625 14.3158 17.3831 15.1134 16.9298 15.7917C16.4766 16.4701 15.8323 16.9988 15.0786 17.311C14.3248 17.6232 13.4954 17.7049 12.6953 17.5457C11.8951 17.3866 11.1601 16.9937 10.5832 16.4168C10.0063 15.8399 9.61342 15.1049 9.45426 14.3047C9.2951 13.5046 9.37679 12.6752 9.689 11.9214C10.0012 11.1677 10.5299 10.5234 11.2083 10.0702C11.8866 9.61693 12.6842 9.375 13.5 9.375C14.5936 9.37626 15.6421 9.81126 16.4154 10.5846C17.1887 11.3579 17.6237 12.4064 17.625 13.5ZM26.3906 7.82812V19.1719C26.3884 21.0857 25.6272 22.9206 24.2739 24.2739C22.9206 25.6272 21.0857 26.3884 19.1719 26.3906H7.82812C5.91426 26.3884 4.07941 25.6272 2.72611 24.2739C1.3728 22.9206 0.611559 21.0857 0.609375 19.1719V7.82812C0.611559 5.91426 1.3728 4.07941 2.72611 2.72611C4.07941 1.3728 5.91426 0.611559 7.82812 0.609375H19.1719C21.0857 0.611559 22.9206 1.3728 24.2739 2.72611C25.6272 4.07941 26.3884 5.91426 26.3906 7.82812V7.82812ZM19.6875 13.5C19.6875 12.2762 19.3246 11.0799 18.6447 10.0624C17.9648 9.04488 16.9985 8.25181 15.8679 7.7835C14.7372 7.31518 13.4931 7.19265 12.2929 7.43139C11.0926 7.67014 9.99011 8.25944 9.12478 9.12478C8.25944 9.99011 7.67014 11.0926 7.43139 12.2929C7.19265 13.4931 7.31518 14.7372 7.7835 15.8679C8.25181 16.9985 9.04488 17.9648 10.0624 18.6447C11.0799 19.3246 12.2762 19.6875 13.5 19.6875C15.1405 19.6857 16.7132 19.0332 17.8732 17.8732C19.0332 16.7132 19.6857 15.1405 19.6875 13.5V13.5ZM21.75 6.79688C21.75 6.49093 21.6593 6.19186 21.4893 5.93748C21.3193 5.6831 21.0777 5.48483 20.7951 5.36775C20.5124 5.25067 20.2014 5.22004 19.9013 5.27972C19.6013 5.33941 19.3257 5.48673 19.1093 5.70307C18.893 5.9194 18.7457 6.19503 18.686 6.49509C18.6263 6.79516 18.6569 7.10618 18.774 7.38884C18.8911 7.67149 19.0893 7.91308 19.3437 8.08305C19.5981 8.25303 19.8972 8.34375 20.2031 8.34375C20.6134 8.34375 21.0068 8.18078 21.2969 7.89068C21.587 7.60059 21.75 7.20713 21.75 6.79688Z" fill="black"/>
</svg>
