<svg width="29" height="23" viewBox="0 0 29 23" fill="none" xmlns="http://www.w3.org/2000/svg">
<path fill-rule="evenodd" clip-rule="evenodd" d="M0.152734 3.35083C0.33468 2.54095 0.781948 1.81782 1.42129 1.2999C2.06063 0.781973 2.85414 0.499944 3.67188 0.5H25.3281C26.1459 0.499944 26.9394 0.781973 27.5787 1.2999C28.2181 1.81782 28.6653 2.54095 28.8473 3.35083L14.5 12.259L0.152734 3.35083ZM0.0625 5.4445V18.4685L10.5351 11.9455L0.0625 5.4445ZM12.264 13.0217L0.407195 20.4045C0.700144 21.032 1.16251 21.5621 1.74047 21.9331C2.31843 22.3041 2.98821 22.5007 3.67188 22.5H25.3281C26.0117 22.5002 26.6812 22.3031 27.2588 21.9318C27.8365 21.5605 28.2984 21.0302 28.591 20.4027L16.7342 13.0198L14.5 14.4077L12.264 13.0198V13.0217ZM18.4649 11.9473L28.9375 18.4685V5.4445L18.4649 11.9455V11.9473Z" fill="#25282B"/>
</svg>
