<svg width="51" height="49" viewBox="0 0 51 49" fill="none" xmlns="http://www.w3.org/2000/svg">
<path d="M15.1849 33.564C1.88221 49.5358 29.7881 57.8882 26.1306 30.4885C30.1598 60.6882 59.4188 37.5327 30.9204 26.7524C59.4179 37.5335 54.605 1.46092 30.1379 20.8831C54.605 1.46092 20.5688 -11.411 24.5949 18.7868C20.5698 -11.4117 -8.67049 11.7694 19.8259 22.5454C-6.03544 12.7615 -4.27032 41.8038 14.3327 32.4402L15.1849 33.564ZM23.4229 22.1969C23.756 21.9308 24.1367 21.7312 24.5433 21.6092C24.9499 21.4873 25.3745 21.4456 25.7927 21.4863C26.211 21.5271 26.6148 21.6497 26.9809 21.8469C27.3471 22.0442 27.6685 22.3123 27.9268 22.636C28.1833 22.9609 28.3715 23.3347 28.4806 23.736C28.5897 24.1372 28.6174 24.5582 28.5624 24.9747C28.5073 25.3912 28.3704 25.7952 28.1595 26.1635C27.9487 26.5318 27.668 26.8573 27.3335 27.1214C27.0006 27.3873 26.62 27.587 26.2135 27.7089C25.807 27.8308 25.3825 27.8726 24.9643 27.8319C24.5462 27.7912 24.1425 27.6688 23.7763 27.4717C23.4102 27.2746 23.0888 27.0066 22.8305 26.6831C22.3128 26.0266 22.0844 25.1854 22.1955 24.3443C22.3066 23.5031 22.7481 22.7308 23.4229 22.1969Z" fill="url(#paint0_linear_1222_55)"/>
<defs>
<linearGradient id="paint0_linear_1222_55" x1="10.0115" y1="5.30329" x2="40.7285" y2="43.9839" gradientUnits="userSpaceOnUse">
<stop stop-color="#FFA2BA"/>
<stop offset="0.447115" stop-color="#E5BFC9"/>
<stop offset="0.937499" stop-color="#FFA2BA"/>
</linearGradient>
</defs>
</svg>
