<svg width="80" height="80" viewBox="0 0 138 109" fill="none" xmlns="http://www.w3.org/2000/svg">
<path d="M69 70.2593C55.6388 70.2593 44.95 78.7156 44.95 89.2861C44.95 99.8567 55.6388 108.313 69 108.313C82.3612 108.313 93.0499 99.8567 93.0499 89.2861C93.0487 78.7156 82.3599 70.2593 69 70.2593ZM82.1177 87.9404L76.5306 91.2078L78.7172 96.3967C78.9607 97.1654 78.7173 98.1267 77.7457 98.7027C77.2599 98.8954 76.7741 99.087 76.2883 99.087C75.8025 99.087 75.3167 98.8944 74.8309 98.7027L69 95.4354L63.4129 98.7027C62.4413 99.2797 61.2262 99.2797 60.4981 98.7027C59.5266 98.1257 59.2831 97.3571 59.5266 96.3967L61.7132 91.2078L56.1261 87.9404C55.1546 87.3635 54.9111 86.5948 55.1546 85.6344C55.3981 84.8658 56.3697 84.2888 57.5835 84.2888H64.6281L66.8148 79.0999C67.0583 78.3312 68.0299 77.7542 69.2438 77.7542C70.4588 77.7542 71.4304 78.3312 71.6727 79.0999L73.8594 84.2888H80.904C82.1191 84.2888 83.0906 84.8658 83.3329 85.6344C83.3329 86.4031 83.0893 87.3635 82.1177 87.9404Z" fill="#E5C442"/>
<path d="M102.038 17.4077L116.857 0.687012H21.1433L36.2055 17.4077H102.038Z" fill="#D28C9E"/>
<path d="M83.8187 57.7666H54.1816L69.0003 68.1445L83.8187 57.7666Z" fill="#D28C9E"/>
<path d="M92.8049 63.1475L137.017 13.5625L122.198 1.83887L77.9862 51.4238L92.8049 63.1475Z" fill="#D28C9E"/>
<path d="M60.0106 51.4238L32.8038 20.6743H32.5603L16.0409 1.84009H15.7987L0.97998 13.5637L45.1922 63.1487L60.0106 51.4238Z" fill="#D28C9E"/>
</svg>
