<svg width="743" height="473" viewBox="0 0 743 473" fill="none" xmlns="http://www.w3.org/2000/svg">
<path d="M497.113 905.984C508.902 854.099 520.052 800.757 545.684 756.632C600.356 662.515 752.876 617.595 741.377 507.508C729.638 395.131 567.965 378.81 497.16 292.108C432.448 212.867 438.88 78.0753 350.716 29.1357C259.754 -21.3575 144.778 2.4415 51.1335 44.5193C-38.2776 84.6951 -108.472 162.289 -149.572 253.934C-186.671 336.656 -153.229 430.793 -162.927 521.824C-168.72 576.196 -243.132 853.34 -258.991 905.984M497.113 905.984C481.049 976.688 463.798 1044.69 407.098 1082.96C305.248 1151.73 165.002 1134.87 49.4603 1091.64C-62.8996 1049.6 -170.075 966.531 -213.172 850.905C-233.886 795.332 -276.157 962.972 -258.991 905.984M497.113 905.984L-258.991 905.984" stroke="black" stroke-width="0.869725"/>
</svg>
