<svg width="41" height="38" viewBox="0 0 51 48" fill="none" xmlns="http://www.w3.org/2000/svg">
<path d="M14.9795 33.1647C1.67676 49.1365 29.5827 57.489 25.9252 30.0892C29.9543 60.289 59.2134 37.1334 30.715 26.3531C59.2124 37.1342 54.3995 1.06163 29.9325 20.4838C54.3995 1.06163 20.3634 -11.8102 24.3894 18.3875C20.3643 -11.811 -8.87593 11.3702 19.6205 22.1461C-6.24088 12.3622 -4.47576 41.4045 14.1272 32.0409L14.9795 33.1647ZM23.2175 21.7976C23.5505 21.5315 23.9312 21.3319 24.3378 21.2099C24.7445 21.088 25.169 21.0463 25.5873 21.0871C26.0056 21.1278 26.4093 21.2504 26.7755 21.4476C27.1416 21.6449 27.463 21.9131 27.7213 22.2368C27.9779 22.5617 28.1661 22.9354 28.2752 23.3367C28.3842 23.738 28.412 24.1589 28.3569 24.5754C28.3018 24.9919 28.1649 25.3959 27.9541 25.7642C27.7433 26.1325 27.4626 26.458 27.1281 26.7221C26.7952 26.988 26.4146 27.1877 26.008 27.3096C25.6015 27.4315 25.1771 27.4733 24.7589 27.4326C24.3407 27.392 23.937 27.2695 23.5709 27.0724C23.2048 26.8753 22.8833 26.6073 22.625 26.2838C22.1074 25.6273 21.879 24.7861 21.9901 23.945C22.1012 23.1038 22.5426 22.3315 23.2175 21.7976Z" fill="url(#paint0_linear_1222_54)"/>
<defs>
<linearGradient id="paint0_linear_1222_54" x1="9.80608" y1="4.904" x2="40.5231" y2="43.5846" gradientUnits="userSpaceOnUse">
<stop stop-color="#FCF566"/>
<stop offset="0.447115" stop-color="#EAD652"/>
<stop offset="0.937499" stop-color="#E3BD26"/>
</linearGradient>
</defs>
</svg>
