<svg width="678" height="954" viewBox="0 0 678 954" fill="none" xmlns="http://www.w3.org/2000/svg">
<path d="M245.85 47.5255C234.061 99.4103 222.911 152.753 197.279 196.878C142.607 290.995 -9.91343 335.915 1.58611 446.002C13.3248 558.378 174.998 574.7 245.803 661.401C310.515 740.643 304.083 875.434 392.247 924.374C483.209 974.867 598.185 951.068 691.829 908.99C781.24 868.815 851.435 791.22 892.535 699.576C929.634 616.854 896.192 522.717 905.89 431.685C911.682 377.314 986.095 100.169 1001.95 47.5255M245.85 47.5255C261.914 -23.1781 279.164 -91.1754 335.865 -129.455C437.715 -198.216 577.961 -181.359 693.502 -138.132C805.862 -96.0952 913.038 -13.0217 956.135 102.605C976.849 158.178 1019.12 -9.46178 1001.95 47.5255M245.85 47.5255L1001.95 47.5255" stroke="black" stroke-width="0.869725"/>
</svg>
